<?xml version="1.0" standalone="no"?>
<!DOCTYPE svg PUBLIC "-//W3C//DTD SVG 20010904//EN"
 "http://www.w3.org/TR/2001/REC-SVG-20010904/DTD/svg10.dtd">
<svg version="1.0" xmlns="http://www.w3.org/2000/svg"
 width="195.000000pt" height="195.000000pt" viewBox="0 0 195.000000 195.000000"
 preserveAspectRatio="xMidYMid meet">
<metadata>
Created by potrace 1.14, written by Peter Selinger 2001-2017
</metadata>
<g transform="translate(0.000000,195.000000) scale(0.100000,-0.100000)"
fill="#000000" stroke="none">
<path d="M567 1626 c-94 -57 -128 -100 -152 -191 -8 -30 -21 -62 -30 -71 -42
-43 -65 -85 -72 -130 -4 -32 -16 -62 -36 -86 -38 -48 -65 -128 -61 -180 3 -29
-1 -47 -13 -60 -25 -27 -21 -87 6 -110 13 -10 29 -18 37 -18 11 0 14 -17 14
-68 0 -81 17 -112 61 -112 16 0 30 -4 30 -10 1 -5 2 -13 3 -17 1 -5 6 -35 10
-68 11 -90 14 -114 22 -185 3 -36 8 -72 9 -80 2 -8 6 -49 10 -90 8 -94 21
-138 43 -144 9 -3 84 -4 165 -4 174 1 172 0 182 108 3 36 8 76 10 90 2 14 6
50 10 80 11 99 16 145 20 170 2 14 7 50 10 80 9 68 10 70 44 70 42 0 54 21 53
99 -1 68 0 69 36 92 28 19 38 32 40 57 2 18 -2 40 -8 47 -9 11 -9 23 0 51 17
51 7 150 -19 202 -29 56 -97 125 -195 197 -43 31 -90 69 -102 84 -32 36 -52
105 -47 167 5 67 -9 72 -80 30z m30 -87 c3 -48 31 -114 64 -150 13 -14 68 -58
121 -98 101 -75 148 -125 173 -185 15 -37 20 -113 8 -155 l-6 -24 -136 6
c-239 11 -387 70 -442 179 -27 53 -23 127 8 174 23 33 43 38 43 10 0 -27 72
-95 132 -124 110 -54 139 -63 154 -51 22 18 17 29 -23 45 -153 62 -216 112
-229 179 -15 83 16 158 87 210 18 14 35 25 38 25 3 0 7 -18 8 -41z m-191 -536
c109 -85 237 -119 467 -122 70 -1 89 -4 94 -17 9 -24 -10 -35 -68 -37 -46 -2
-54 -5 -54 -22 0 -12 9 -21 24 -25 22 -5 24 -11 25 -68 1 -34 -1 -62 -4 -63
-7 -1 -541 -1 -562 0 -15 1 -18 11 -18 66 l0 65 230 0 c202 0 231 2 237 16 3
9 0 20 -7 24 -7 4 -127 8 -267 8 -163 0 -259 4 -265 10 -21 21 0 42 40 42 21
0 43 5 49 11 18 18 3 39 -27 39 -19 0 -29 6 -33 19 -8 32 3 91 24 133 l20 40
28 -44 c15 -24 46 -58 67 -75z m144 -411 c0 -5 -13 -20 -28 -35 l-28 -27 -32
28 c-18 16 -29 32 -25 35 9 10 113 9 113 -1z m220 0 c0 -4 -13 -20 -28 -35
l-29 -27 -31 30 c-18 17 -32 32 -32 34 0 1 27 4 60 5 33 1 60 -2 60 -7z m-111
-81 c19 -19 18 -20 -18 -55 l-37 -37 -38 37 -38 37 37 37 c41 42 31 44 94 -19z
m131 -18 c0 -36 0 -36 -20 -18 -19 17 -19 19 -4 37 23 24 24 24 24 -19z m-261
-72 c17 -16 31 -33 31 -38 0 -5 -15 -23 -32 -40 l-33 -32 -32 30 c-18 16 -33
34 -33 41 0 13 49 68 61 68 4 0 21 -13 38 -29z m223 2 c15 -15 28 -31 28 -37
0 -5 -14 -25 -32 -43 l-32 -33 -38 37 -38 37 32 33 c18 18 36 33 42 33 5 0 23
-12 38 -27z m-107 -180 c-19 -18 -38 -33 -43 -33 -4 0 -23 15 -40 33 l-33 34
38 36 37 37 38 -38 38 -37 -35 -32z m-75 -84 c0 -5 -75 -5 -112 0 -16 2 -7 38
13 60 l21 23 39 -38 c22 -21 39 -41 39 -45z m180 21 c0 -25 -2 -26 -60 -26
-33 0 -60 1 -60 2 0 2 19 21 42 43 39 39 42 40 60 25 10 -10 18 -29 18 -44z
m-12 -99 l-3 -26 -132 -3 c-73 -1 -133 1 -133 5 0 4 -3 17 -6 28 -5 19 0 20
136 21 l141 0 -3 -25z"/>
<path d="M1148 435 c-1 -1 -31 -5 -66 -8 -117 -11 -202 -66 -226 -146 -28 -94
8 -182 89 -221 88 -42 235 -56 345 -32 30 7 36 13 40 41 l5 33 19 -21 c61 -67
287 -86 396 -33 l35 17 10 97 c12 116 7 148 -32 196 -72 89 -273 101 -380 23
l-40 -29 3 28 c4 31 -2 34 -96 45 -30 4 -65 8 -77 10 -12 2 -23 2 -25 0z m153
-52 c5 -5 9 -30 7 -54 l-3 -44 -72 2 c-121 3 -174 -26 -152 -84 13 -35 47 -47
135 -45 l80 1 0 -46 c-1 -45 -2 -47 -36 -56 -19 -5 -79 -7 -132 -5 -79 4 -106
10 -153 32 -62 31 -84 58 -95 116 -14 77 42 149 140 183 53 17 263 18 281 0z
m381 -6 c56 -29 88 -77 88 -133 l0 -44 -130 0 c-81 0 -130 -4 -130 -10 0 -6
15 -19 33 -30 39 -24 107 -26 166 -5 47 16 52 11 48 -40 -4 -45 -63 -64 -192
-61 -148 3 -213 42 -230 135 -7 41 9 101 37 136 55 71 219 98 310 52z m-404
-126 c19 -1 23 -6 20 -28 -3 -27 -6 -28 -62 -31 -84 -5 -126 4 -126 28 0 23
51 38 115 34 17 -1 40 -2 53 -3z"/>
<path d="M1541 304 c-39 -28 -26 -44 34 -44 40 0 55 4 55 14 0 33 -56 52 -89
30z"/>
</g>
</svg>
