<svg viewBox="0 0 32 32" xmlns="http://www.w3.org/2000/svg">
  <path d="M18.006 16.53l11.79-11.912c0.233-0.275 0.355-0.628 0.341-0.99s-0.162-0.705-0.416-0.961-0.593-0.406-0.951-0.42c-0.358-0.014-0.708 0.109-0.98 0.344l-11.79 11.912-11.79-11.927c-0.268-0.271-0.631-0.423-1.010-0.423s-0.742 0.152-1.010 0.423-0.418 0.638-0.418 1.020c0 0.383 0.15 0.75 0.418 1.020l11.804 11.912-11.804 11.912c-0.149 0.129-0.27 0.287-0.355 0.466s-0.133 0.372-0.141 0.57c-0.008 0.198 0.025 0.395 0.097 0.58s0.18 0.352 0.319 0.492c0.139 0.14 0.304 0.25 0.487 0.322s0.378 0.106 0.574 0.098 0.388-0.056 0.565-0.142c0.176-0.086 0.333-0.208 0.461-0.359l11.804-11.912 11.79 11.912c0.272 0.235 0.622 0.358 0.98 0.344s0.697-0.164 0.951-0.42c0.253-0.256 0.402-0.599 0.416-0.961s-0.108-0.715-0.341-0.99l-11.79-11.912z"></path>
</svg>